<?xml version="1.0" standalone="no"?>
<!DOCTYPE svg PUBLIC "-//W3C//DTD SVG 20010904//EN"
 "http://www.w3.org/TR/2001/REC-SVG-20010904/DTD/svg10.dtd">
<svg version="1.0" xmlns="http://www.w3.org/2000/svg"
 width="1250.000000pt" height="1280.000000pt" viewBox="0 0 1250.000000 1280.000000"
 preserveAspectRatio="xMidYMid meet">

<g transform="translate(0.000000,1280.000000) scale(0.100000,-0.100000)"
fill="#000000" stroke="none">
<path d="M4790 12794 c-19 -2 -80 -9 -135 -15 -232 -24 -533 -99 -758 -188
-568 -225 -1056 -611 -1415 -1119 -300 -423 -498 -933 -569 -1462 -26 -191
-26 -668 0 -860 68 -508 224 -994 454 -1414 84 -156 267 -431 379 -571 109
-137 426 -455 559 -561 211 -169 384 -283 600 -395 493 -256 983 -383 1515
-391 132 -3 155 -1 155 12 0 11 -13 16 -50 18 -277 15 -686 108 -984 224 -319
123 -634 306 -916 528 -157 125 -439 404 -559 555 -448 565 -718 1218 -800
1935 -46 404 -25 743 70 1120 97 389 297 792 551 1109 94 118 309 334 423 425
110 88 309 220 430 284 414 221 923 335 1345 302 519 -40 989 -259 1359 -634
340 -345 547 -760 633 -1266 22 -133 25 -496 5 -610 -78 -430 -241 -744 -537
-1028 -232 -223 -499 -366 -810 -432 -142 -31 -389 -38 -519 -16 -448 76 -837
388 -1018 816 -218 513 -139 1027 210 1374 173 171 360 266 595 302 276 42
531 -48 734 -259 156 -163 237 -352 249 -582 12 -221 -59 -408 -213 -562 -57
-56 -93 -82 -165 -117 -117 -58 -189 -76 -299 -76 -113 0 -196 26 -294 91
-150 100 -242 258 -260 447 -23 230 135 449 363 502 32 7 52 17 52 26 0 11
-10 13 -42 8 -130 -18 -220 -63 -308 -153 -156 -158 -198 -386 -116 -623 36
-101 81 -172 166 -258 84 -84 154 -129 262 -168 66 -24 87 -26 218 -26 168 -1
225 12 365 78 340 161 543 538 505 938 -27 281 -132 507 -330 709 -205 209
-434 318 -710 339 -306 22 -600 -62 -870 -251 -89 -63 -256 -227 -327 -323
-139 -188 -238 -431 -273 -675 -19 -125 -8 -439 20 -566 105 -490 380 -900
783 -1168 100 -67 294 -159 407 -195 189 -59 339 -82 535 -82 315 0 595 66
890 210 520 253 916 708 1108 1275 90 263 121 458 120 750 -2 609 -214 1209
-599 1695 -107 135 -335 356 -474 459 -362 270 -753 432 -1192 496 -100 15
-448 27 -518 19z m453 -39 c875 -102 1622 -638 2022 -1449 130 -263 210 -521
257 -821 29 -186 31 -534 5 -700 -48 -310 -160 -613 -323 -875 -207 -336 -526
-622 -880 -792 -395 -189 -823 -248 -1215 -168 -596 122 -1093 572 -1293 1170
-162 486 -110 985 143 1372 64 98 83 121 206 243 194 194 427 319 693 372 120
23 339 23 452 -1 410 -86 742 -405 851 -816 32 -120 44 -277 31 -389 -41 -352
-266 -644 -579 -752 -90 -31 -86 -21 7 14 209 80 365 228 463 437 70 149 82
207 81 400 0 146 -3 176 -27 263 -61 227 -187 429 -354 568 -208 173 -418 249
-688 249 -343 0 -645 -129 -900 -385 -190 -189 -301 -388 -370 -660 -87 -344
-30 -768 151 -1125 87 -169 177 -293 314 -430 318 -319 722 -490 1155 -490
517 0 1045 230 1413 615 313 327 493 684 579 1145 25 138 25 579 0 737 -144
898 -705 1644 -1502 1996 -332 147 -693 217 -1060 204 -1087 -38 -2077 -696
-2575 -1712 -157 -319 -258 -653 -305 -1005 -23 -168 -30 -507 -15 -675 26
-305 94 -644 180 -905 70 -214 111 -314 215 -525 198 -402 433 -725 756 -1040
219 -213 414 -365 652 -507 145 -87 160 -98 62 -47 -111 58 -340 210 -464 307
-911 712 -1464 1846 -1465 3002 0 489 90 912 288 1351 425 943 1277 1617 2266
1794 256 46 543 57 773 30z m4 -110 c423 -54 813 -212 1158 -468 128 -94 393
-354 482 -472 217 -288 368 -591 458 -920 176 -643 97 -1278 -223 -1799 -68
-112 -88 -139 -178 -246 -282 -335 -635 -559 -1048 -665 -470 -120 -931 -50
-1313 198 -340 220 -604 581 -708 969 -47 176 -59 262 -59 453 -1 193 10 267
61 429 123 392 431 721 800 855 144 53 263 74 418 74 263 0 451 -67 659 -233
264 -212 423 -592 385 -926 -33 -299 -215 -562 -474 -685 -72 -34 -204 -69
-254 -68 -29 1 -26 3 18 9 82 12 214 58 279 97 192 116 311 270 379 490 24 78
27 105 27 238 1 93 -4 171 -12 205 -50 205 -135 371 -261 512 -114 126 -310
245 -476 289 -100 27 -301 36 -414 20 -262 -39 -498 -158 -690 -350 -214 -214
-344 -483 -380 -786 -34 -286 29 -616 172 -901 290 -578 909 -927 1533 -865
762 77 1396 587 1652 1331 79 229 112 431 112 679 0 479 -146 968 -408 1366
-390 595 -966 972 -1652 1083 -148 24 -519 23 -685 -1 -759 -112 -1423 -500
-1894 -1105 -529 -680 -747 -1517 -625 -2402 153 -1117 772 -2098 1692 -2687
64 -41 119 -77 122 -80 12 -15 -106 57 -235 142 -403 268 -749 616 -1019 1025
-125 189 -186 296 -275 482 -172 360 -286 748 -346 1183 -23 160 -31 554 -16
726 84 950 586 1806 1366 2329 391 262 836 425 1310 479 123 15 436 12 562 -4z
m28 -114 c247 -37 455 -101 680 -211 567 -276 1017 -788 1229 -1399 242 -697
169 -1394 -206 -1954 -290 -434 -715 -716 -1233 -819 -162 -33 -447 -33 -593
0 -636 142 -1088 607 -1224 1260 -19 89 -23 139 -23 297 0 122 5 212 14 250
127 575 539 961 1090 1025 333 39 675 -113 881 -390 62 -84 142 -250 170 -355
34 -124 39 -332 11 -450 -42 -176 -149 -349 -278 -448 -143 -110 -271 -157
-438 -162 l-110 -4 105 9 c168 13 301 63 421 160 203 163 313 414 296 678 -28
423 -308 780 -703 894 -68 20 -102 23 -244 23 -141 0 -178 -3 -253 -23 -450
-119 -782 -473 -883 -944 -28 -130 -26 -388 5 -538 101 -489 407 -890 835
-1094 524 -250 1192 -151 1696 251 87 70 236 221 305 308 284 362 429 812 412
1275 -19 508 -181 972 -481 1377 -91 124 -277 318 -401 418 -341 276 -749 447
-1184 495 -138 16 -444 8 -584 -15 -616 -98 -1140 -364 -1572 -799 -225 -226
-394 -457 -539 -738 -397 -766 -448 -1652 -150 -2571 261 -800 789 -1494 1480
-1946 174 -114 179 -117 109 -80 -33 17 -107 63 -165 102 -963 643 -1557 1665
-1661 2857 -14 163 -6 505 16 670 54 407 204 840 411 1181 139 232 268 395
468 595 244 243 458 397 764 549 272 134 583 229 867 264 50 6 101 13 115 15
14 2 113 4 220 5 146 1 228 -4 325 -18z m-118 -96 c158 -18 252 -36 393 -77
976 -281 1661 -1214 1660 -2258 -1 -472 -161 -905 -465 -1260 -157 -184 -397
-364 -611 -461 -545 -244 -1105 -197 -1544 130 -287 215 -489 535 -573 909
-18 81 -21 130 -22 292 0 182 2 202 28 302 67 259 186 454 378 624 142 125
314 213 501 256 118 27 310 29 412 4 333 -80 591 -330 691 -671 36 -122 45
-308 21 -418 -54 -244 -201 -433 -411 -533 -71 -34 -173 -65 -210 -63 -11 0
15 9 57 19 258 64 458 263 530 529 29 107 29 284 0 401 -88 357 -354 624 -692
696 -36 7 -114 14 -175 14 -524 -1 -988 -427 -1066 -979 -16 -111 -6 -329 20
-449 125 -575 537 -998 1091 -1118 128 -28 408 -25 549 5 162 34 285 77 426
147 176 87 295 174 451 329 276 275 440 597 508 995 68 395 -13 899 -208 1302
-112 232 -251 427 -439 616 -331 334 -706 531 -1177 619 -75 14 -148 18 -340
18 -224 -1 -259 -3 -404 -29 -693 -121 -1292 -490 -1724 -1060 -415 -548 -630
-1256 -591 -1950 41 -735 274 -1411 686 -1993 242 -343 589 -684 920 -904 114
-75 156 -108 88 -69 -305 179 -674 505 -927 820 -719 897 -1000 2126 -718
3141 200 720 644 1323 1270 1723 92 59 388 205 490 241 261 93 462 136 790
168 86 9 215 6 337 -8z m116 -3292 c-7 -2 -19 -2 -25 0 -7 3 -2 5 12 5 14 0
19 -2 13 -5z m254 -19 c-3 -3 -12 -4 -19 -1 -8 3 -5 6 6 6 11 1 17 -2 13 -5z
m-1527 -2820 c0 -2 -9 0 -20 6 -11 6 -20 13 -20 16 0 2 9 0 20 -6 11 -6 20
-13 20 -16z m-30 -60 c0 -2 -13 2 -30 11 -16 9 -30 18 -30 21 0 2 14 -2 30
-11 17 -9 30 -18 30 -21z m50 10 c0 -2 -9 0 -20 6 -11 6 -20 13 -20 16 0 2 9
0 20 -6 11 -6 20 -13 20 -16z"/>
<path d="M9320 8123 c-104 -8 -337 -46 -450 -73 -935 -229 -1873 -894 -2749
-1949 -74 -89 -108 -138 -101 -145 6 -6 90 69 247 225 131 129 290 279 353
335 801 703 1575 1130 2295 1269 244 47 576 59 802 30 832 -109 1587 -655
2003 -1448 164 -313 270 -656 322 -1037 17 -127 17 -575 -1 -700 -62 -451
-203 -854 -408 -1170 -89 -136 -179 -247 -303 -370 -309 -309 -696 -512 -1133
-592 -105 -20 -155 -23 -362 -22 -222 0 -250 2 -374 28 -278 57 -568 179 -771
323 -168 121 -344 312 -468 508 -47 76 -136 268 -171 373 -60 176 -82 306 -88
529 -7 238 9 378 64 568 82 287 204 497 398 683 258 249 561 372 910 373 261
1 509 -73 713 -214 101 -70 245 -224 309 -332 199 -335 221 -749 57 -1095
-110 -232 -307 -402 -544 -470 -93 -27 -251 -36 -348 -21 -303 47 -531 250
-609 541 -24 89 -24 291 0 380 97 362 468 550 778 395 164 -82 259 -241 259
-429 0 -44 -7 -106 -15 -136 -17 -63 -5 -88 19 -42 45 87 58 234 31 350 -46
197 -206 352 -416 407 -97 26 -270 17 -369 -19 -188 -67 -327 -197 -414 -388
-181 -393 -55 -875 295 -1133 84 -62 158 -99 282 -140 517 -173 1091 80 1341
590 61 123 106 256 132 390 25 124 25 402 0 534 -85 459 -380 858 -781 1058
-441 221 -934 239 -1398 52 -398 -161 -725 -467 -927 -868 -89 -177 -175 -457
-206 -666 -22 -150 -29 -400 -15 -545 88 -909 667 -1645 1521 -1933 485 -164
952 -180 1455 -52 173 44 299 91 480 180 275 135 498 298 720 526 294 302 491
631 635 1059 298 884 221 1844 -213 2660 -479 898 -1339 1505 -2287 1614 -121
14 -372 19 -500 9z m605 -47 c504 -82 997 -311 1405 -654 126 -105 348 -334
439 -452 459 -591 701 -1296 701 -2040 0 -402 -55 -730 -185 -1110 -240 -701
-730 -1260 -1367 -1559 -336 -158 -634 -228 -1014 -238 -376 -10 -686 48
-1031 193 -675 282 -1144 861 -1302 1604 -61 291 -55 666 16 965 99 420 313
791 592 1030 348 296 751 440 1186 422 246 -10 439 -60 670 -173 393 -192 666
-549 768 -1002 29 -130 31 -440 4 -575 -80 -395 -292 -701 -602 -868 -180 -97
-339 -134 -550 -126 -152 5 -241 24 -373 79 -470 196 -685 762 -463 1223 21
44 48 91 60 105 l23 25 -21 -32 c-39 -58 -91 -177 -112 -258 -31 -117 -31
-307 0 -430 84 -326 312 -556 648 -652 120 -34 319 -43 447 -19 401 76 715
363 850 779 51 159 61 229 61 432 -1 264 -37 430 -142 639 -201 400 -538 653
-1010 758 -84 19 -129 22 -313 22 -186 0 -229 -3 -320 -22 -539 -117 -978
-479 -1200 -991 -122 -281 -180 -567 -180 -885 0 -763 396 -1465 1037 -1842
258 -152 596 -264 918 -305 254 -32 609 -8 876 61 340 87 669 252 949 476 537
431 890 1115 985 1909 21 168 24 549 6 705 -65 575 -264 1106 -583 1554 -430
603 -1086 1043 -1768 1184 -192 40 -270 47 -530 47 -271 0 -362 -10 -599 -61
-490 -105 -1014 -355 -1528 -727 -51 -37 -93 -65 -93 -62 0 10 226 173 370
267 536 351 1071 558 1597 618 123 14 561 5 678 -14z m-135 -57 c485 -50 993
-269 1425 -614 136 -108 361 -336 469 -475 366 -472 579 -984 663 -1600 21
-157 24 -583 5 -745 -93 -777 -415 -1424 -927 -1863 -645 -553 -1522 -733
-2310 -476 -706 231 -1194 733 -1400 1440 -100 344 -106 766 -15 1118 59 229
150 438 271 621 138 209 394 437 618 549 254 128 587 193 844 167 277 -29 523
-113 726 -248 112 -75 281 -244 353 -353 167 -254 241 -501 240 -805 -1 -362
-128 -676 -365 -901 -324 -308 -771 -377 -1157 -178 -387 200 -562 674 -399
1084 17 41 35 80 40 85 6 6 1 -11 -10 -37 -63 -149 -90 -317 -71 -456 47 -352
263 -606 610 -717 114 -37 323 -46 449 -21 215 44 362 125 526 290 150 151
235 304 289 521 154 613 -137 1255 -689 1520 -124 60 -257 105 -390 131 -142
28 -424 24 -575 -9 -694 -150 -1177 -720 -1281 -1512 -15 -115 -15 -383 0
-500 82 -634 427 -1181 942 -1496 251 -153 573 -263 889 -305 174 -23 517 -15
678 15 838 158 1497 703 1824 1511 153 377 228 769 228 1190 0 861 -328 1656
-921 2235 -253 247 -456 391 -762 541 -247 121 -486 198 -743 240 -132 22
-508 30 -662 14 -608 -61 -1234 -330 -1927 -826 -27 -20 -36 -24 -20 -10 55
49 290 214 426 299 731 459 1420 648 2109 576z m-70 -64 c329 -35 599 -115
901 -265 494 -247 907 -633 1200 -1120 237 -395 378 -826 431 -1312 15 -145
15 -481 -1 -623 -56 -507 -222 -984 -471 -1350 -382 -561 -962 -924 -1629
-1022 -156 -22 -456 -22 -612 0 -366 54 -706 186 -982 384 -100 72 -278 241
-359 342 -500 620 -598 1493 -247 2196 216 434 597 733 1067 837 142 32 454
32 594 1 285 -64 505 -179 683 -358 236 -235 366 -533 382 -874 13 -277 -72
-577 -221 -779 -244 -331 -642 -476 -1032 -377 -82 21 -227 93 -301 149 -204
154 -324 420 -310 686 7 132 50 292 92 346 10 11 8 3 -4 -23 -12 -23 -33 -81
-47 -130 -35 -118 -37 -296 -5 -418 99 -373 415 -609 816 -607 485 1 871 368
949 903 29 198 13 390 -50 578 -187 563 -712 903 -1328 860 -261 -18 -496 -97
-702 -237 -381 -257 -616 -659 -696 -1187 -19 -129 -16 -444 6 -565 63 -350
178 -626 366 -880 377 -508 1012 -798 1702 -777 470 13 905 169 1293 461 97
73 284 253 372 358 382 457 612 1140 613 1814 1 958 -453 1879 -1195 2429
-498 369 -1083 558 -1646 531 -446 -21 -851 -133 -1324 -366 -272 -134 -504
-274 -747 -450 -32 -22 -58 -39 -58 -36 0 15 314 231 505 346 684 413 1382
601 1995 535z m85 -80 c349 -55 663 -174 982 -371 365 -225 682 -545 922 -929
178 -284 329 -671 395 -1012 45 -238 51 -304 51 -608 -1 -248 -4 -310 -23
-430 -126 -802 -500 -1427 -1081 -1807 -193 -126 -455 -240 -680 -298 -446
-113 -938 -76 -1361 105 -332 141 -577 332 -783 610 -343 462 -461 1079 -316
1643 159 617 572 1031 1153 1154 146 30 390 30 533 0 412 -89 710 -316 883
-672 184 -381 155 -854 -74 -1199 -170 -255 -499 -419 -798 -397 -231 17 -448
122 -578 279 -58 70 -131 212 -155 302 -34 126 -31 297 7 428 19 63 20 33 2
-34 -23 -86 -23 -269 0 -364 23 -94 94 -237 155 -310 176 -212 483 -314 771
-256 136 28 295 105 393 190 314 273 431 763 285 1196 -170 504 -637 812
-1198 792 -267 -10 -475 -78 -702 -229 -119 -79 -295 -254 -370 -368 -396
-600 -383 -1426 31 -2041 177 -263 387 -447 673 -589 530 -263 1137 -289 1688
-73 492 193 894 555 1148 1033 136 254 240 573 292 892 102 626 -8 1298 -307
1868 -407 779 -1152 1329 -1968 1455 -143 22 -435 30 -585 16 -568 -55 -1151
-280 -1758 -677 -79 -52 -141 -90 -138 -85 3 5 77 56 163 114 595 396 1186
630 1733 687 125 13 497 4 615 -15z m-2535 -679 c0 -2 -8 -10 -17 -17 -16 -13
-17 -12 -4 4 13 16 21 21 21 13z m-50 -80 c0 -2 -8 -10 -17 -17 -16 -13 -17
-12 -4 4 13 16 21 21 21 13z m-10 -50 c0 -2 -8 -10 -17 -17 -16 -13 -17 -12
-4 4 13 16 21 21 21 13z m-40 -30 c0 -2 -8 -10 -17 -17 -16 -13 -17 -12 -4 4
13 16 21 21 21 13z m1760 -2080 c0 -2 -8 -10 -17 -17 -16 -13 -17 -12 -4 4 13
16 21 21 21 13z m-16 -76 c-15 -22 -29 -40 -31 -40 -5 0 3 15 29 53 30 43 31
32 2 -13z m-3 -147 c-12 -20 -14 -14 -5 12 4 9 9 14 11 11 3 -2 0 -13 -6 -23z"/>
<path d="M2160 5579 c-483 -49 -935 -265 -1316 -631 -453 -436 -723 -972 -821
-1633 -24 -167 -24 -560 1 -730 72 -496 248 -922 544 -1318 527 -703 1279
-1142 2142 -1249 154 -19 554 -16 710 5 544 75 1003 263 1435 587 919 690
1458 1609 1566 2665 17 170 15 538 -5 722 -53 493 -180 930 -408 1406 -39 81
-77 147 -85 147 -20 0 -17 -10 41 -158 132 -333 220 -682 278 -1102 21 -150
17 -731 -5 -890 -141 -995 -636 -1808 -1480 -2431 -428 -316 -824 -480 -1317
-545 -180 -23 -577 -16 -745 15 -466 84 -876 267 -1238 553 -201 159 -436 416
-584 638 -288 434 -430 956 -393 1451 39 531 226 994 553 1374 388 451 883
683 1412 662 533 -21 1024 -301 1330 -757 167 -249 248 -516 249 -815 0 -309
-85 -586 -258 -840 -113 -167 -311 -343 -483 -429 -120 -60 -317 -106 -453
-106 -135 0 -339 49 -460 110 -210 105 -418 321 -502 521 -154 368 -71 776
214 1044 87 82 176 137 273 168 104 33 300 32 403 -2 194 -63 370 -233 433
-418 21 -58 24 -86 23 -198 0 -114 -4 -138 -26 -197 -71 -189 -212 -322 -376
-357 -71 -15 -117 -14 -187 4 -95 25 -145 54 -218 126 -81 81 -104 71 -37 -16
96 -125 235 -191 400 -189 274 2 509 222 577 537 24 112 14 269 -24 379 -95
275 -343 492 -631 554 -88 18 -272 18 -361 -1 -177 -37 -329 -123 -477 -270
-171 -168 -289 -392 -329 -623 -19 -109 -19 -323 0 -431 75 -427 395 -815 820
-992 369 -154 781 -138 1150 46 395 197 707 570 860 1026 69 210 90 343 89
589 0 226 -13 326 -66 509 -70 246 -176 452 -344 671 -436 571 -1166 890
-1874 819z m526 -43 c820 -141 1486 -740 1684 -1518 64 -248 67 -559 9 -837
-125 -607 -591 -1132 -1144 -1290 -124 -35 -207 -46 -365 -46 -175 0 -258 13
-410 61 -197 63 -360 160 -516 307 -336 318 -474 737 -384 1163 47 226 161
428 334 592 186 177 384 257 626 256 234 -1 440 -91 602 -262 61 -65 158 -211
158 -237 0 -5 -14 15 -31 46 -81 149 -212 275 -364 349 -136 66 -212 84 -360
84 -146 1 -232 -18 -360 -79 -309 -148 -531 -465 -586 -835 -16 -111 -6 -310
20 -418 103 -416 433 -766 854 -907 162 -54 265 -68 457 -62 184 6 267 22 422
82 224 87 462 266 630 473 476 591 518 1440 102 2080 -285 438 -708 748 -1191
873 -200 51 -291 63 -498 63 -242 1 -403 -24 -624 -95 -459 -148 -895 -498
-1204 -964 -87 -132 -215 -386 -271 -536 -112 -305 -176 -706 -162 -1019 25
-546 183 -1020 484 -1450 522 -745 1296 -1208 2177 -1300 129 -14 452 -14 580
0 514 54 997 237 1413 537 850 610 1390 1427 1571 2373 29 155 51 360 61 585
l8 200 -3 -245 c-5 -311 -35 -542 -106 -824 -169 -671 -572 -1328 -1112 -1815
-296 -267 -529 -435 -787 -566 -437 -221 -867 -325 -1355 -325 -826 0 -1601
333 -2187 939 -447 463 -708 978 -803 1591 -25 159 -31 512 -11 687 48 431
190 841 414 1193 127 201 370 472 557 625 324 263 685 424 1075 479 133 19
464 15 596 -8z m-65 -102 c222 -31 442 -100 639 -200 452 -230 818 -646 970
-1103 63 -189 81 -291 87 -503 9 -289 -28 -495 -131 -740 -163 -391 -474 -712
-840 -868 -425 -182 -933 -103 -1300 201 -198 163 -335 371 -412 624 -26 85
-28 102 -28 285 -1 183 1 201 27 294 99 356 359 637 673 728 115 33 326 33
434 -1 102 -31 214 -91 291 -155 65 -53 162 -172 194 -236 24 -47 16 -38 -44
52 -115 171 -292 292 -494 335 -96 20 -275 12 -372 -16 -302 -89 -561 -374
-644 -709 -29 -119 -33 -148 -32 -277 1 -253 71 -461 226 -666 184 -245 431
-404 740 -475 101 -23 365 -26 470 -5 242 48 464 166 658 351 258 245 417 536
489 891 30 152 33 460 4 613 -118 642 -620 1204 -1263 1416 -250 82 -488 112
-725 92 -486 -42 -872 -224 -1247 -587 -339 -329 -570 -730 -691 -1200 -95
-371 -98 -839 -6 -1226 195 -827 842 -1575 1666 -1927 349 -149 671 -219 1055
-229 689 -17 1308 198 1898 660 639 500 1094 1156 1308 1885 87 298 128 572
139 922 l7 235 1 -210 c5 -630 -149 -1215 -466 -1770 -260 -455 -652 -883
-1126 -1229 -780 -569 -1752 -715 -2665 -401 -434 149 -795 378 -1136 720
-449 449 -715 959 -807 1550 -29 189 -32 580 -5 755 78 501 259 926 549 1289
159 199 420 432 626 560 232 143 520 244 798 280 115 14 364 12 485 -5z m-21
-108 c551 -74 1019 -366 1331 -830 133 -197 204 -360 255 -581 22 -99 28 -151
32 -301 3 -110 0 -215 -7 -269 -48 -355 -196 -665 -441 -918 -223 -232 -466
-365 -742 -408 -122 -19 -351 -7 -471 25 -214 55 -393 159 -553 320 -178 178
-281 366 -325 588 -18 90 -16 327 4 414 61 272 209 494 430 643 159 108 400
151 591 107 179 -42 357 -166 457 -320 17 -25 15 -25 -8 4 -191 237 -438 346
-702 310 -403 -55 -726 -440 -749 -893 -13 -276 62 -499 246 -727 162 -203
404 -349 672 -406 105 -23 324 -25 425 -5 541 107 982 600 1086 1212 28 165
23 419 -11 578 -109 511 -475 968 -965 1206 -587 286 -1258 232 -1800 -143
-239 -166 -461 -396 -628 -652 -460 -706 -517 -1639 -148 -2405 375 -779 1119
-1359 1966 -1534 256 -52 610 -70 855 -42 697 80 1316 409 1906 1012 573 587
914 1305 999 2104 8 77 15 174 16 215 0 41 4 95 9 120 11 59 2 -208 -11 -355
-98 -1049 -662 -1986 -1599 -2652 -389 -276 -847 -453 -1320 -508 -180 -21
-490 -19 -670 5 -528 69 -1009 274 -1430 609 -52 41 -158 138 -236 216 -452
450 -720 978 -794 1565 -28 225 -22 525 16 745 163 950 868 1749 1699 1924
197 42 427 52 615 27z m75 -121 c614 -111 1144 -550 1358 -1125 205 -552 63
-1204 -354 -1620 -246 -246 -525 -370 -834 -370 -525 0 -1004 383 -1100 880
-19 95 -19 287 -1 382 55 287 244 542 494 667 255 128 578 77 793 -126 61 -58
159 -186 159 -209 0 -5 -15 15 -34 43 -58 89 -99 134 -169 189 -187 147 -424
191 -642 120 -279 -90 -499 -359 -566 -691 -19 -97 -15 -285 10 -389 93 -391
436 -714 841 -790 114 -22 302 -21 415 3 360 75 680 345 861 725 100 212 144
409 144 646 0 335 -101 637 -303 906 -557 742 -1543 919 -2299 414 -555 -371
-912 -981 -988 -1688 -17 -156 -7 -483 19 -623 74 -403 218 -733 459 -1056
390 -521 920 -878 1532 -1033 252 -64 454 -85 735 -77 356 11 653 77 982 217
502 216 1085 701 1450 1210 159 221 344 567 436 815 130 350 199 711 217 1130
l8 190 -3 -220 c-18 -1078 -498 -2026 -1390 -2742 -584 -470 -1213 -693 -1880
-670 -419 15 -759 100 -1130 282 -292 144 -509 299 -746 535 -391 388 -638
834 -738 1330 -36 181 -45 282 -45 500 1 239 17 362 79 605 191 747 746 1372
1406 1583 85 27 253 64 349 76 75 9 388 -3 475 -19z m3682 -1247 c-3 -7 -5 -2
-5 12 0 14 2 19 5 13 2 -7 2 -19 0 -25z m40 -115 c-2 -16 -4 -3 -4 27 0 30 2
43 4 28 2 -16 2 -40 0 -55z"/>
</g>
</svg>
